<svg xmlns="http://www.w3.org/2000/svg" viewBox="0 0 960 452" width="960" height="452" font-family="-apple-system, BlinkMacSystemFont, 'Segoe UI', Roboto, Helvetica, Arial, sans-serif">
  <defs>
    <marker id="arrow" viewBox="0 0 10 10" refX="8" refY="5" markerWidth="7" markerHeight="7" orient="auto-start-reverse">
      <path d="M0,0 L10,5 L0,10 z" fill="#94a3b8"/>
    </marker>
    <filter id="shadow" x="-20%" y="-20%" width="140%" height="140%">
      <feDropShadow dx="0" dy="2" stdDeviation="6" flood-color="#0f172a" flood-opacity="0.07"/>
    </filter>
  </defs>

  <rect x="0" y="0" width="960" height="452" fill="#ffffff"/>

  <!-- section labels -->
  <text x="99" y="40" text-anchor="middle" font-size="12" font-weight="600" letter-spacing="1.2" fill="#94a3b8">PRODUCERS</text>
  <text x="474" y="40" text-anchor="middle" font-size="12" font-weight="600" letter-spacing="1.2" fill="#94a3b8">QUEUES</text>
  <text x="846" y="40" text-anchor="middle" font-size="12" font-weight="600" letter-spacing="1.2" fill="#94a3b8">WORKERS</text>

  <!-- producers -->
  <g filter="url(#shadow)">
    <rect x="24" y="64" width="150" height="60" rx="11" fill="#ffffff" stroke="#e2e8f0"/>
    <rect x="24" y="138" width="150" height="48" rx="11" fill="#ffffff" stroke="#e2e8f0"/>
  </g>
  <text x="44" y="94" font-size="16" font-weight="700" fill="#0f172a">SDK</text>
  <text x="44" y="114" font-size="12" fill="#64748b">Go · TS · Python</text>
  <text x="44" y="168" font-size="16" font-weight="700" fill="#0f172a">CLI</text>

  <!-- enqueue: SDK + CLI merge into one arrow to conveyord -->
  <line x1="174" y1="94" x2="200" y2="94" stroke="#cbd5e1" stroke-width="2.5"/>
  <line x1="174" y1="162" x2="200" y2="162" stroke="#cbd5e1" stroke-width="2.5"/>
  <line x1="200" y1="94" x2="200" y2="162" stroke="#cbd5e1" stroke-width="2.5"/>
  <line x1="200" y1="128" x2="250" y2="128" stroke="#cbd5e1" stroke-width="2.5" marker-end="url(#arrow)"/>
  <text x="222" y="120" text-anchor="middle" font-size="11" font-weight="500" fill="#475569">enqueue</text>

  <!-- conveyord / queues container -->
  <g filter="url(#shadow)">
    <rect x="250" y="44" width="448" height="300" rx="14" fill="#f8fafc" stroke="#e6ebf2"/>
  </g>
  <text x="266" y="72" font-size="13" font-weight="700" fill="#0f172a">conveyord<tspan font-weight="400" fill="#64748b"> · cluster (HA)</tspan></text>

  <!-- lane: critical -->
  <rect x="266" y="86" width="416" height="58" rx="11" fill="#ffffff" stroke="#eef2f6"/>
  <rect x="278" y="100" width="86" height="30" rx="8" fill="#eef2ff" stroke="#c7d2fe"/>
  <text x="321" y="120" text-anchor="middle" font-size="13" font-weight="700" fill="#3730a3">critical</text>
  <text x="374" y="120" font-size="11" fill="#94a3b8">×6</text>
  <rect x="408" y="102" width="26" height="26" rx="6" fill="#bfdbfe" stroke="#60a5fa"/>
  <rect x="442" y="102" width="26" height="26" rx="6" fill="#bfdbfe" stroke="#60a5fa"/>
  <rect x="476" y="102" width="26" height="26" rx="6" fill="#bfdbfe" stroke="#60a5fa"/>
  <rect x="510" y="102" width="26" height="26" rx="6" fill="#bfdbfe" stroke="#60a5fa"/>
  <rect x="544" y="102" width="26" height="26" rx="6" fill="#2563eb" stroke="#1d4ed8"/>
  <text x="660" y="121" font-size="18" font-weight="700" fill="#cbd5e1">›</text>

  <!-- lane: default -->
  <rect x="266" y="156" width="416" height="58" rx="11" fill="#ffffff" stroke="#eef2f6"/>
  <rect x="278" y="170" width="86" height="30" rx="8" fill="#eef2ff" stroke="#c7d2fe"/>
  <text x="321" y="190" text-anchor="middle" font-size="13" font-weight="700" fill="#3730a3">default</text>
  <text x="374" y="190" font-size="11" fill="#94a3b8">×3</text>
  <rect x="408" y="172" width="26" height="26" rx="6" fill="#fde68a" stroke="#f59e0b"/>
  <rect x="442" y="172" width="26" height="26" rx="6" fill="#bfdbfe" stroke="#60a5fa"/>
  <rect x="476" y="172" width="26" height="26" rx="6" fill="#bfdbfe" stroke="#60a5fa"/>
  <rect x="510" y="172" width="26" height="26" rx="6" fill="#2563eb" stroke="#1d4ed8"/>
  <text x="660" y="191" font-size="18" font-weight="700" fill="#cbd5e1">›</text>

  <!-- lane: low -->
  <rect x="266" y="226" width="416" height="58" rx="11" fill="#ffffff" stroke="#eef2f6"/>
  <rect x="278" y="240" width="86" height="30" rx="8" fill="#eef2ff" stroke="#c7d2fe"/>
  <text x="321" y="260" text-anchor="middle" font-size="13" font-weight="700" fill="#3730a3">low</text>
  <text x="374" y="260" font-size="11" fill="#94a3b8">×1</text>
  <rect x="408" y="242" width="26" height="26" rx="6" fill="#bfdbfe" stroke="#60a5fa"/>
  <rect x="442" y="242" width="26" height="26" rx="6" fill="#2563eb" stroke="#1d4ed8"/>
  <text x="660" y="261" font-size="18" font-weight="700" fill="#cbd5e1">›</text>

  <text x="266" y="310" font-size="12" fill="#64748b">dispatched by weight, then FIFO</text>

  <!-- push / ack arrows (conveyord ⇄ one worker) -->
  <line x1="698" y1="160" x2="744" y2="160" stroke="#cbd5e1" stroke-width="2.5" marker-end="url(#arrow)"/>
  <text x="721" y="151" text-anchor="middle" font-size="11" font-weight="500" fill="#475569">push</text>
  <line x1="744" y1="212" x2="700" y2="212" stroke="#cbd5e1" stroke-width="2.5" marker-end="url(#arrow)"/>
  <text x="721" y="203" text-anchor="middle" font-size="11" font-weight="500" fill="#475569">ack</text>

  <!-- worker: one box (all workers are identical); stacked cards imply many -->
  <rect x="758" y="132" width="200" height="124" rx="11" fill="#ffffff" stroke="#e2e8f0"/>
  <rect x="752" y="126" width="200" height="124" rx="11" fill="#ffffff" stroke="#e2e8f0"/>
  <g filter="url(#shadow)">
    <rect x="746" y="120" width="200" height="124" rx="11" fill="#ffffff" stroke="#e2e8f0"/>
  </g>
  <text x="764" y="152" font-size="16" font-weight="700" fill="#0f172a">Worker</text>
  <text x="764" y="174" font-size="12" fill="#64748b">handlers · drain</text>
  <text x="764" y="198" font-size="11" fill="#94a3b8">concurrency slots</text>
  <rect x="764" y="208" width="24" height="24" rx="6" fill="#10b981"/>
  <rect x="798" y="208" width="24" height="24" rx="6" fill="#10b981"/>
  <rect x="832" y="208" width="24" height="24" rx="6" fill="#10b981"/>
  <rect x="866" y="208" width="24" height="24" rx="6" fill="#ffffff" stroke="#cbd5e1"/>
  <rect x="900" y="208" width="24" height="24" rx="6" fill="#ffffff" stroke="#cbd5e1"/>

  <!-- broker -->
  <line x1="380" y1="346" x2="380" y2="360" stroke="#cbd5e1" stroke-width="2.5" marker-end="url(#arrow)"/>
  <line x1="568" y1="360" x2="568" y2="346" stroke="#cbd5e1" stroke-width="2.5" marker-end="url(#arrow)"/>
  <text x="474" y="357" text-anchor="middle" font-size="11" fill="#64748b">persisted before dispatch</text>
  <g filter="url(#shadow)">
    <rect x="250" y="362" width="448" height="40" rx="11" fill="#0f172a"/>
  </g>
  <text x="474" y="387" text-anchor="middle" font-size="13" font-weight="600" fill="#e2e8f0">Durable broker · Postgres / in-memory</text>

  <!-- legend -->
  <rect x="300" y="424" width="12" height="12" rx="3" fill="#2563eb"/>
  <text x="318" y="434" font-size="11.5" fill="#475569">queued</text>
  <rect x="392" y="424" width="12" height="12" rx="3" fill="#10b981"/>
  <text x="410" y="434" font-size="11.5" fill="#475569">in-flight</text>
  <rect x="492" y="424" width="12" height="12" rx="3" fill="#f59e0b"/>
  <text x="510" y="434" font-size="11.5" fill="#475569">retrying</text>
  <rect x="588" y="424" width="12" height="12" rx="3" fill="#ef4444"/>
  <text x="606" y="434" font-size="11.5" fill="#475569">dead-letter</text>
</svg>
