<svg xmlns="http://www.w3.org/2000/svg" viewBox="0 0 1280 600" width="100%" font-family="-apple-system, BlinkMacSystemFont, 'Segoe UI', Roboto, Helvetica, Arial, sans-serif">
  <defs>
    <marker id="arrow" viewBox="0 0 10 10" refX="8" refY="5" markerWidth="7" markerHeight="7" orient="auto-start-reverse">
      <path d="M0,0 L10,5 L0,10 z" fill="#94a3b8"/>
    </marker>
    <filter id="shadow" x="-20%" y="-20%" width="140%" height="140%">
      <feDropShadow dx="0" dy="2" stdDeviation="6" flood-color="#0f172a" flood-opacity="0.07"/>
    </filter>
  </defs>

  <rect x="0" y="0" width="1280" height="600" fill="#ffffff"/>

  <!-- section labels -->
  <text x="135" y="72" text-anchor="middle" font-size="13" font-weight="600" letter-spacing="1.5" fill="#94a3b8">PRODUCERS</text>
  <text x="600" y="72" text-anchor="middle" font-size="13" font-weight="600" letter-spacing="1.5" fill="#94a3b8">QUEUES</text>
  <text x="1105" y="72" text-anchor="middle" font-size="13" font-weight="600" letter-spacing="1.5" fill="#94a3b8">WORKERS</text>

  <!-- producers -->
  <g filter="url(#shadow)">
    <rect x="40" y="100" width="190" height="92" rx="12" fill="#ffffff" stroke="#e2e8f0"/>
    <rect x="40" y="212" width="190" height="64" rx="12" fill="#ffffff" stroke="#e2e8f0"/>
  </g>
  <text x="60" y="138" font-size="16" font-weight="700" fill="#0f172a">Client SDK</text>
  <text x="60" y="162" font-size="12.5" fill="#64748b">Go · TypeScript · Python</text>
  <text x="60" y="182" font-size="11" fill="#94a3b8">your producer code</text>
  <text x="60" y="242" font-size="16" font-weight="700" fill="#0f172a">conveyor CLI</text>
  <text x="60" y="264" font-size="12.5" fill="#64748b">enqueue · operate</text>

  <!-- enqueue arrow -->
  <line x1="230" y1="188" x2="316" y2="188" stroke="#cbd5e1" stroke-width="2" marker-end="url(#arrow)"/>
  <text x="273" y="178" text-anchor="middle" font-size="11" font-weight="500" fill="#475569">enqueue · gRPC</text>

  <!-- conveyord / queues container -->
  <g filter="url(#shadow)">
    <rect x="320" y="86" width="560" height="410" rx="16" fill="#f8fafc" stroke="#e6ebf2"/>
  </g>
  <text x="340" y="118" font-size="14" font-weight="700" fill="#0f172a">conveyord<tspan font-weight="400" fill="#64748b">  ·  multi-node cluster (HA)</tspan></text>

  <!-- queue lane: critical -->
  <rect x="340" y="150" width="520" height="76" rx="12" fill="#ffffff" stroke="#eef2f6"/>
  <rect x="350" y="173" width="92" height="30" rx="8" fill="#eef2ff" stroke="#c7d2fe"/>
  <text x="396" y="193" text-anchor="middle" font-size="13" font-weight="700" fill="#3730a3">critical</text>
  <text x="454" y="193" font-size="11" fill="#94a3b8">×6</text>
  <rect x="490" y="174" width="28" height="28" rx="7" fill="#bfdbfe" stroke="#60a5fa"/>
  <rect x="526" y="174" width="28" height="28" rx="7" fill="#bfdbfe" stroke="#60a5fa"/>
  <rect x="562" y="174" width="28" height="28" rx="7" fill="#bfdbfe" stroke="#60a5fa"/>
  <rect x="598" y="174" width="28" height="28" rx="7" fill="#bfdbfe" stroke="#60a5fa"/>
  <rect x="634" y="174" width="28" height="28" rx="7" fill="#bfdbfe" stroke="#60a5fa"/>
  <rect x="670" y="174" width="28" height="28" rx="7" fill="#2563eb" stroke="#1d4ed8"/>
  <text x="832" y="194" font-size="20" font-weight="700" fill="#cbd5e1">›</text>

  <!-- queue lane: default -->
  <rect x="340" y="238" width="520" height="76" rx="12" fill="#ffffff" stroke="#eef2f6"/>
  <rect x="350" y="261" width="92" height="30" rx="8" fill="#eef2ff" stroke="#c7d2fe"/>
  <text x="396" y="281" text-anchor="middle" font-size="13" font-weight="700" fill="#3730a3">default</text>
  <text x="454" y="281" font-size="11" fill="#94a3b8">×3</text>
  <rect x="490" y="262" width="28" height="28" rx="7" fill="#fde68a" stroke="#f59e0b"/>
  <rect x="526" y="262" width="28" height="28" rx="7" fill="#bfdbfe" stroke="#60a5fa"/>
  <rect x="562" y="262" width="28" height="28" rx="7" fill="#bfdbfe" stroke="#60a5fa"/>
  <rect x="598" y="262" width="28" height="28" rx="7" fill="#2563eb" stroke="#1d4ed8"/>
  <text x="832" y="282" font-size="20" font-weight="700" fill="#cbd5e1">›</text>

  <!-- queue lane: low -->
  <rect x="340" y="326" width="520" height="76" rx="12" fill="#ffffff" stroke="#eef2f6"/>
  <rect x="350" y="349" width="92" height="30" rx="8" fill="#eef2ff" stroke="#c7d2fe"/>
  <text x="396" y="369" text-anchor="middle" font-size="13" font-weight="700" fill="#3730a3">low</text>
  <text x="454" y="369" font-size="11" fill="#94a3b8">×1</text>
  <rect x="490" y="350" width="28" height="28" rx="7" fill="#bfdbfe" stroke="#60a5fa"/>
  <rect x="526" y="350" width="28" height="28" rx="7" fill="#2563eb" stroke="#1d4ed8"/>
  <text x="832" y="370" font-size="20" font-weight="700" fill="#cbd5e1">›</text>

  <text x="340" y="430" font-size="12" fill="#64748b">Tasks wait in line per queue — dispatched by weight, then in order.</text>

  <!-- push / ack arrows -->
  <line x1="880" y1="160" x2="978" y2="160" stroke="#cbd5e1" stroke-width="2" marker-end="url(#arrow)"/>
  <text x="929" y="150" text-anchor="middle" font-size="11" font-weight="500" fill="#475569">push · stream</text>
  <text x="929" y="176" text-anchor="middle" font-size="10" fill="#94a3b8">no polling</text>
  <line x1="978" y1="300" x2="882" y2="300" stroke="#cbd5e1" stroke-width="2" marker-end="url(#arrow)"/>
  <text x="929" y="292" text-anchor="middle" font-size="11" font-weight="500" fill="#475569">ack · heartbeat</text>

  <!-- workers -->
  <g filter="url(#shadow)">
    <rect x="980" y="100" width="250" height="118" rx="12" fill="#ffffff" stroke="#e2e8f0"/>
    <rect x="980" y="238" width="250" height="118" rx="12" fill="#ffffff" stroke="#e2e8f0"/>
  </g>
  <text x="1000" y="130" font-size="16" font-weight="700" fill="#0f172a">Worker</text>
  <text x="1000" y="152" font-size="12.5" fill="#64748b">handler code · graceful drain</text>
  <text x="1000" y="176" font-size="11" fill="#94a3b8">concurrency slots</text>
  <rect x="1000" y="184" width="26" height="26" rx="6" fill="#10b981"/>
  <rect x="1038" y="184" width="26" height="26" rx="6" fill="#10b981"/>
  <rect x="1076" y="184" width="26" height="26" rx="6" fill="#10b981"/>
  <rect x="1114" y="184" width="26" height="26" rx="6" fill="#ffffff" stroke="#cbd5e1"/>
  <rect x="1152" y="184" width="26" height="26" rx="6" fill="#ffffff" stroke="#cbd5e1"/>
  <text x="1000" y="268" font-size="16" font-weight="700" fill="#0f172a">Worker</text>
  <text x="1000" y="290" font-size="12.5" fill="#64748b">handler code · graceful drain</text>
  <text x="1000" y="314" font-size="11" fill="#94a3b8">concurrency slots</text>
  <rect x="1000" y="322" width="26" height="26" rx="6" fill="#10b981"/>
  <rect x="1038" y="322" width="26" height="26" rx="6" fill="#10b981"/>
  <rect x="1076" y="322" width="26" height="26" rx="6" fill="#ffffff" stroke="#cbd5e1"/>
  <rect x="1114" y="322" width="26" height="26" rx="6" fill="#ffffff" stroke="#cbd5e1"/>
  <rect x="1152" y="322" width="26" height="26" rx="6" fill="#ffffff" stroke="#cbd5e1"/>

  <!-- broker -->
  <line x1="380" y1="498" x2="380" y2="518" stroke="#cbd5e1" stroke-width="2" marker-end="url(#arrow)"/>
  <line x1="820" y1="518" x2="820" y2="498" stroke="#cbd5e1" stroke-width="2" marker-end="url(#arrow)"/>
  <text x="600" y="512" text-anchor="middle" font-size="11" fill="#64748b">every task persisted before dispatch</text>
  <g filter="url(#shadow)">
    <rect x="320" y="520" width="560" height="42" rx="12" fill="#0f172a"/>
  </g>
  <text x="600" y="546" text-anchor="middle" font-size="13" font-weight="600" fill="#e2e8f0">Durable broker · Postgres (prod) / in-memory (dev) · source of truth</text>

  <!-- legend -->
  <rect x="320" y="575" width="12" height="12" rx="3" fill="#2563eb"/>
  <text x="338" y="585" font-size="11.5" fill="#475569">queued</text>
  <rect x="408" y="575" width="12" height="12" rx="3" fill="#10b981"/>
  <text x="426" y="585" font-size="11.5" fill="#475569">in-flight</text>
  <rect x="506" y="575" width="12" height="12" rx="3" fill="#f59e0b"/>
  <text x="524" y="585" font-size="11.5" fill="#475569">retrying</text>
  <rect x="604" y="575" width="12" height="12" rx="3" fill="#ef4444"/>
  <text x="622" y="585" font-size="11.5" fill="#475569">dead-lettered</text>
</svg>
